<svg clip-rule="evenodd" fill-rule="evenodd" stroke-linejoin="round" stroke-miterlimit="1.41421" viewBox="0 0 328 54" xmlns="http://www.w3.org/2000/svg" xmlns:xlink="http://www.w3.org/1999/xlink"><clipPath id="a"><path clip-rule="evenodd" d="m3 2.125h323v50h-323z"/></clipPath><path d="m3 2.125h323v50h-323z" fill="none"/><g clip-path="url(#a)"><g><g class="text" fill="#fff"><path d="m305.27 2.338.27.005.268.009.268.012.268.015.266.018.266.022.265.026.264.028.263.032.262.035.261.038.261.042.259.044.258.048.257.051.256.054.255.058.254.06.253.063.251.067.25.069.249.073.248.075.246.079.245.081.244.084.242.087.241.09.24.093.238.096.236.098.236.101.233.104.232.107.231.109.229.112.227.115.226.118.224.12.222.122.221.125.219.128.217.131.216.132.214.136.212.138.21.14.208.142.207.146.205.147.203.15.201.152.199.155.197.157.195.159.193.161.192.164.188.166.188.168.185.17.183.173.181.175.179.176.177.179.175.181.172.183.17.186.169.187.166.189.163.191.161.193.16.196.157.197.154.199.153.201.149.203.148.205.145.206.143.208.14.211.138.212.135.214.133.215.13.217.128.22.125.22.123.223.12.224.117.225.115.228.112.229.109.23.107.232.104.234.101.235.099.237.095.237.093.24.09.241.087.243.085.243.081.245.078.246.076.248.072.249.07.25.066.252.063.252.061.254.057.255.054.256.051.257.048.259.045.259.041.26.038.262.035.262.032.263.029.263.025.266.022.265.019.267.015.267.012.268.008.269.005.269.002.254v29.826h-10v-29.794l-.001-.159-.003-.143-.004-.142-.006-.141-.009-.141-.009-.14-.012-.14-.013-.138-.015-.139-.017-.138-.018-.137-.02-.137-.022-.136-.023-.135-.025-.135-.027-.134-.028-.134-.03-.132-.031-.132-.033-.132-.035-.131-.036-.13-.038-.13-.039-.129-.041-.128-.042-.128-.044-.127-.045-.126-.047-.125-.048-.125-.051-.125-.051-.123-.053-.123-.054-.122-.056-.121-.057-.12-.058-.12-.06-.118-.062-.118-.062-.118-.065-.116-.065-.116-.067-.114-.068-.114-.07-.114-.071-.111-.072-.112-.074-.11-.075-.109-.076-.109-.077-.107-.079-.107-.08-.106-.081-.104-.083-.104-.084-.103-.085-.101-.086-.101-.087-.1-.089-.098-.089-.097-.091-.097-.092-.095-.093-.095-.094-.093-.095-.091-.097-.091-.097-.09-.099-.088-.1-.088-.1-.086-.102-.085-.103-.084-.103-.082-.105-.081-.106-.08-.106-.079-.108-.078-.108-.076-.11-.075-.11-.073-.111-.073-.112-.071-.113-.069-.114-.068-.115-.067-.115-.066-.117-.064-.117-.063-.118-.061-.119-.06-.12-.059-.12-.057-.121-.056-.122-.054-.123-.053-.123-.051-.124-.05-.125-.048-.125-.047-.127-.046-.127-.043-.127-.043-.129-.041-.128-.039-.13-.038-.13-.036-.131-.034-.132-.033-.132-.032-.133-.03-.134-.028-.134-.026-.134-.025-.136-.024-.136-.021-.136-.02-.138-.019-.137-.017-.139-.014-.139-.014-.14-.011-.14-.01-.141-.008-.141-.006-.142-.005-.143-.003h-.143-.143l-.143.003-.142.005-.141.006-.141.008-.14.01-.14.011-.139.014-.139.015-.137.016-.138.018-.136.021-.136.021-.136.024-.134.025-.134.026-.134.028-.133.03-.132.032-.132.033-.131.034-.13.036-.13.038-.129.039-.128.041-.127.043-.127.043-.127.046-.125.047-.125.048-.124.05-.123.051-.123.053-.122.054-.121.056-.121.057-.119.059-.119.06-.118.061-.117.063-.116.064-.116.066-.115.067-.114.068-.113.069-.112.071-.111.073-.111.073-.109.075-.108.076-.108.078-.106.079-.106.08-.105.081-.103.082-.103.084-.102.085-.1.086-.1.087-.099.089-.097.09-.096.09-.096.092-.094.094-.093.094-.092.095-.091.096-.089.098-.089.099-.087.099-.086.101-.085.101-.084.103-.082.103-.082.105-.08.106-.078.106-.078.108-.076.109-.075.109-.074.11-.072.111-.071.113-.07.113-.068.114-.067.114-.065.116-.065.116-.062.117-.062.119-.06.118-.058.12-.057.12-.056.121-.054.122-.053.123-.052.123-.049.124-.049.125-.047.126-.045.126-.044.127-.042.127-.041.129-.039.129-.038.129-.036.131-.035.131-.033.131-.031.133-.03.133-.028.133-.027.134-.025.135-.023.135-.022.136-.02.137-.018.137-.017.138-.015.138-.013.139-.012.14-.009.14-.008.141-.007.142-.004.141-.003.143-.001.159v29.794h-10v-29.826l.002-.254.005-.269.008-.269.012-.268.015-.267.019-.267.022-.265.025-.265.029-.264.032-.263.035-.263.038-.261.041-.26.045-.26.048-.258.051-.257.054-.256.057-.255.061-.253.063-.253.066-.252.07-.25.072-.249.076-.248.078-.246.081-.245.085-.244.087-.242.09-.241.092-.239.096-.238.099-.237.101-.235.104-.234.106-.232.11-.23.112-.229.115-.228.117-.225.12-.224.123-.223.125-.22.128-.22.13-.217.133-.215.135-.214.138-.212.14-.211.143-.208.145-.206.148-.205.15-.203.152-.201.154-.199.157-.197.16-.196.161-.193.163-.191.167-.189.168-.187.17-.186.172-.183.175-.181.177-.179.179-.176.181-.175.183-.173.185-.17.187-.168.19-.166.191-.164.193-.161.195-.159.197-.157.2-.155.2-.152.203-.15.205-.147.207-.146.208-.142.21-.14.212-.138.214-.136.216-.133.217-.13.219-.128.221-.125.222-.122.225-.121.225-.117.227-.115.229-.112.231-.109.232-.107.234-.104.235-.101.236-.098.238-.096.24-.093.241-.09.242-.087.244-.084.245-.081.246-.079.248-.075.249-.073.25-.069.251-.067.253-.063.254-.06.255-.058.256-.054.257-.051.258-.048.259-.044.261-.042.261-.038.262-.035.263-.032.264-.028.265-.026.266-.022.266-.018.268-.015.268-.012.268-.009.27-.005.27-.002.27.002z"/><path d="m254.809 2.351.158.001.159.003.158.003.158.005.157.005.158.007.157.007.157.009.157.009.156.01.157.012.156.012.156.014.155.014.156.015.155.016.155.018.154.018.154.019.155.02.153.021.154.022.153.023.153.024.152.025.153.026.152.026.151.028.152.028.151.03.15.03.151.032.15.032.15.033.149.034.149.035.149.036.148.036.148.038.148.039.148.039.147.04.146.042.146.042.146.043.146.043.152.047.282.09.287.095.286.099.285.102.283.106.28.109.28.112.277.116.276.118.274.122.273.126.27.128.269.132.267.134.265.138.263.141.261.144.259.147.257.15.255.153.253.156.251.159.249.161.247.165.245.168.242.17.24.173.239.176.236.179.234.181.231.185.229.186.227.19.224.192.223.195.219.197.218.2.215.203.212.205.21.208.208.21.205.212.203.215.2.218.197.219.195.222.192.225.19.227.187.229.184.231.181.234.179.236.176.238.173.241.17.242.168.245.164.247.162.249.159.251.156.253.153.255.15.257.147.259.144.261.141.263.138.265.134.267.132.269.128.27.126.272.122.275.118.275.116.278.112.279.109.282.106.282.102.285.099.286.095.287.09.282.047.152.043.146.043.146.042.146.042.146.04.148.039.147.039.148.037.148.037.148.036.149.035.148.034.15.033.15.032.15.032.15.03.151.03.151.028.151.028.153.026.152.026.151.025.153.024.153.023.154.022.153.021.153.02.154.019.155.018.154.017.155.017.155.015.156.014.155.014.156.012.156.012.156.01.157.009.157.009.157.007.157.007.158.005.157.005.158.003.158.003.159.001.158.017 5.159h-38.404l.026.066.063.159.065.158.068.157.069.157.071.155.073.154.075.153.076.152.079.151.081.15.082.149.084.148.086.147.088.146.09.145.091.144.094.143.095.142.097.14.099.14.1.139.103.137.104.136.105.135.108.135.109.133.111.131.113.131.114.13.116.128.118.127.12.126.121.125.123.124.124.122.126.121.128.12.129.118.131.118.133.116.134.114.135.114.137.112.139.11.14.11.142.108.143.106.145.105.146.104.147.102.149.101.151.099.152.098.153.097.155.095.156.093.157.092.159.09.16.089.161.087.163.086.164.084.165.082.166.081.168.079.169.077.17.076.171.074.173.072.173.071.175.069.176.067.177.066.178.063.179.062.18.06.181.059.183.056.183.055.184.053.185.051.186.049.188.047.188.045.189.044.189.041.191.04.192.038.192.035.194.034.194.032.195.029.195.028.197.026.197.024.198.021.199.02.2.017.202.016.27.018.275.016.126.006.132.006.131.006.129.004.129.004.128.004.127.002.126.002.125.002h.124.123.122l.122-.001.12-.002.12-.003.119-.003.118-.003.118-.005.116-.005.116-.005.115-.006.114-.007.114-.007.113-.008.112-.008.111-.009.111-.01.11-.01.11-.011.109-.011.108-.012.108-.012.107-.013.106-.014.106-.014.106-.014.105-.015.104-.016.104-.016.104-.017.103-.017.103-.018.102-.018.102-.019.102-.02.101-.02.101-.02.1-.021.1-.022.093-.021.207-.047.197-.048.198-.05.196-.053.196-.054.196-.057.195-.059.195-.061.195-.064.195-.066.195-.068.196-.07.195-.073.197-.075.197-.078.197-.08.198-.082.199-.085.2-.088.201-.09.202-.092.203-.095.204-.098.206-.1.207-.103.209-.105.21-.108.212-.111.213-.113.215-.116.217-.118.218-.122.221-.123.222-.127.224-.129.227-.131.238-.14 5.065 8.622-.257.151-.267.155-.267.154-.267.152-.268.15-.267.148-.269.147-.269.145-.269.143-.27.141-.271.139-.272.138-.273.135-.274.134-.275.131-.276.129-.278.127-.278.125-.28.122-.281.12-.283.118-.284.115-.286.113-.287.11-.289.108-.291.104-.292.102-.294.1-.296.096-.297.094-.3.09-.301.087-.303.085-.304.081-.307.078-.308.075-.304.07-.162.036-.157.033-.156.033-.158.032-.157.031-.159.031-.158.029-.159.029-.16.027-.16.027-.161.026-.161.025-.161.024-.162.024-.162.022-.163.022-.164.02-.164.02-.164.019-.165.018-.165.017-.166.016-.166.016-.167.014-.167.014-.168.012-.168.012-.169.011-.169.01-.17.008-.17.009-.171.007-.171.006-.172.005-.172.005-.173.003-.174.003-.173.002h-.175-.175l-.175-.001-.176-.002-.177-.002-.177-.004-.178-.005-.178-.005-.179-.007-.179-.007-.18-.008-.187-.01-.356-.02-.368-.025-.304-.023-.305-.027-.305-.03-.304-.033-.302-.037-.302-.039-.301-.043-.301-.046-.299-.049-.298-.052-.297-.055-.296-.058-.295-.061-.294-.064-.293-.068-.292-.07-.29-.073-.29-.077-.288-.079-.287-.082-.286-.086-.284-.088-.284-.091-.282-.094-.28-.097-.279-.1-.278-.103-.277-.105-.275-.109-.273-.111-.272-.114-.271-.117-.269-.12-.267-.123-.266-.125-.265-.129-.262-.131-.261-.133-.26-.137-.257-.139-.256-.142-.255-.145-.252-.147-.251-.15-.249-.153-.247-.155-.245-.158-.244-.161-.241-.163-.24-.166-.237-.169-.236-.171-.233-.174-.232-.176-.229-.179-.228-.181-.225-.184-.223-.187-.221-.189-.219-.191-.216-.194-.214-.197-.212-.199-.21-.201-.208-.204-.205-.207-.202-.208-.2-.211-.198-.214-.195-.216-.193-.218-.19-.221-.188-.223-.185-.225-.183-.227-.179-.23-.178-.232-.174-.235-.172-.236-.169-.239-.166-.241-.163-.243-.16-.246-.158-.247-.155-.25-.151-.252-.149-.254-.146-.256-.142-.258-.14-.26-.136-.262-.133-.264-.13-.266-.127-.268-.124-.27-.12-.271-.117-.274-.114-.276-.111-.277-.104-.271-.055-.148-.051-.141-.051-.141-.049-.141-.049-.143-.048-.142-.047-.143-.046-.143-.046-.144-.044-.144-.043-.144-.043-.145-.042-.145-.041-.146-.04-.146-.039-.146-.038-.147-.037-.148-.036-.147-.036-.148-.034-.149-.034-.148-.032-.149-.032-.15-.031-.149-.03-.15-.028-.151-.028-.151-.027-.151-.026-.151-.025-.152-.025-.153-.023-.152-.022-.153-.021-.153-.02-.153-.02-.154-.018-.154-.018-.155-.016-.154-.015-.155-.015-.155-.013-.156-.013-.155-.011-.157-.011-.156-.009-.157-.009-.156-.007-.157-.007-.158-.005-.157-.005-.158-.003-.158-.003-.159-.002-.158v-.159-.159l.002-.158.002-.159.004-.158.005-.158.005-.157.007-.158.007-.157.008-.157.01-.157.01-.157.012-.156.012-.156.014-.156.014-.156.015-.155.016-.155.018-.155.018-.154.019-.155.02-.154.021-.153.022-.154.023-.153.024-.153.025-.153.026-.152.026-.152.028-.151.028-.152.03-.151.03-.15.032-.151.032-.15.033-.15.034-.149.035-.149.036-.149.036-.148.038-.148.039-.148.039-.147.04-.148.042-.146.042-.146.043-.146.043-.146.047-.152.09-.282.095-.287.099-.286.102-.285.106-.282.109-.282.112-.279.116-.278.118-.275.122-.274.126-.273.128-.27.132-.269.134-.267.138-.265.141-.263.144-.261.147-.259.15-.257.153-.255.156-.253.159-.251.161-.249.165-.247.168-.245.17-.242.173-.241.176-.238.179-.236.181-.233.184-.232.187-.229.19-.227.192-.225.195-.222.197-.219.2-.218.203-.215.205-.212.207-.211.211-.207.212-.205.215-.203.218-.2.219-.197.222-.195.225-.192.227-.19.229-.186.231-.185.234-.181.236-.179.238-.176.241-.173.242-.17.245-.168.247-.165.249-.161.251-.159.253-.156.255-.153.257-.15.259-.147.261-.144.263-.141.265-.138.267-.134.268-.132.271-.128.272-.126.275-.122.275-.118.278-.116.279-.112.281-.109.283-.106.285-.102.285-.099.288-.095.282-.09.152-.047.146-.043.146-.043.146-.042.147-.042.147-.04.147-.039.147-.039.149-.038.148-.036.149-.036.149-.035.149-.034.15-.033.15-.032.15-.032.151-.03.151-.03.152-.028.151-.028.152-.026.153-.026.152-.025.153-.024.153-.023.154-.022.153-.021.154-.02.155-.019.154-.018.155-.018.155-.016.156-.015.155-.014.156-.014.156-.012.157-.012.156-.01.157-.009.157-.009.157-.007.158-.007.157-.005.158-.005.158-.003.159-.003.158-.001.159-.001.159.001zm-.254 9.999-.095.001-.095.002-.095.002-.095.003-.094.003-.094.004-.094.004-.094.005-.093.006-.094.006-.093.007-.093.007-.093.008-.093.009-.092.009-.092.01-.092.01-.092.011-.092.011-.091.012-.092.012-.091.014-.091.013-.09.014-.091.015-.09.015-.09.016-.09.017-.09.016-.089.018-.09.018-.089.018-.089.019-.088.02-.089.02-.088.021-.088.021-.088.022-.087.022-.088.023-.087.023-.087.024-.087.024-.086.025-.086.026-.086.026-.079.024-.178.057-.171.056-.169.059-.168.06-.167.062-.167.065-.165.066-.165.069-.163.07-.163.073-.161.074-.16.076-.16.078-.158.08-.157.082-.156.083-.155.086-.154.087-.153.089-.152.091-.15.093-.15.094-.148.097-.147.098-.145.099-.145.102-.143.103-.142.105-.14.106-.14.108-.138.11-.136.112-.136.113-.133.114-.133.117-.131.117-.13.12-.128.12-.127.123-.125.124-.124.125-.123.127-.12.128-.12.13-.118.131-.116.133-.114.133-.113.136-.112.136-.11.138-.108.14-.106.14-.105.142-.103.143-.102.145-.099.145-.098.147-.097.148-.094.15-.093.15-.091.152-.089.153-.087.154-.086.155-.083.156-.082.157-.08.158-.078.16-.076.16-.074.161-.073.163-.07.163-.069.165-.066.165-.065.167-.062.167-.012.033h27.548l-.012-.033-.063-.167-.064-.167-.066-.165-.069-.165-.07-.163-.073-.162-.074-.162-.076-.16-.078-.16-.08-.158-.082-.157-.083-.156-.086-.155-.087-.154-.089-.153-.091-.152-.093-.15-.094-.15-.097-.147-.098-.148-.099-.145-.102-.145-.103-.143-.105-.142-.106-.14-.108-.14-.11-.138-.112-.136-.113-.136-.114-.133-.116-.133-.118-.131-.12-.13-.12-.128-.123-.127-.124-.125-.125-.124-.127-.123-.128-.12-.13-.12-.131-.117-.133-.117-.134-.114-.135-.113-.136-.112-.138-.11-.14-.108-.14-.106-.142-.105-.143-.103-.145-.102-.145-.099-.147-.098-.149-.097-.149-.094-.15-.093-.152-.091-.153-.089-.154-.087-.155-.086-.156-.083-.157-.082-.158-.08-.16-.078-.16-.076-.161-.074-.163-.073-.163-.07-.165-.068-.165-.067-.167-.065-.167-.062-.168-.06-.17-.059-.17-.056-.178-.057-.078-.024-.087-.026-.086-.026-.086-.025-.087-.024-.087-.024-.087-.023-.088-.023-.087-.022-.088-.022-.088-.021-.088-.021-.089-.02-.088-.02-.089-.019-.089-.018-.09-.018-.089-.018-.09-.016-.09-.017-.09-.016-.09-.015-.091-.015-.09-.014-.091-.013-.091-.014-.092-.012-.091-.012-.092-.011-.092-.011-.092-.01-.092-.01-.092-.009-.093-.009-.093-.008-.093-.007-.093-.007-.094-.006-.093-.006-.094-.005-.094-.004-.094-.004-.094-.003-.095-.003-.095-.002-.095-.002-.095-.001h-.095-.095z"/><path d="m237.565-4.5-33.197 57.5-33.198-57.5 8.66-5 24.538 42.5 24.537-42.5z"/><path d="m161 2h10v50h-10z"/><path d="m156.032 12-.201.001-.168.003-.168.006-.167.007-.167.01-.165.011-.165.014-.164.015-.164.018-.163.02-.162.022-.162.023-.16.026-.16.027-.16.03-.158.031-.158.034-.157.035-.157.037-.155.039-.155.041-.154.043-.153.044-.153.047-.152.048-.151.05-.15.052-.149.054-.148.055-.148.057-.147.059-.146.061-.145.063-.144.064-.143.066-.142.067-.142.069-.14.071-.14.073-.138.074-.138.076-.136.077-.136.079-.134.081-.134.082-.132.084-.132.086-.13.087-.13.088-.128.09-.127.092-.126.093-.125.094-.123.096-.123.098-.121.099-.12.1-.119.102-.118.103-.116.104-.115.106-.114.108-.113.108-.111.11-.11.111-.108.113-.108.114-.106.115-.104.116-.103.118-.102.119-.1.12-.099.121-.098.123-.096.123-.094.125-.093.126-.092.127-.09.128-.088.13-.087.13-.086.132-.084.132-.082.134-.081.134-.079.136-.077.136-.076.138-.074.138-.073.14-.071.14-.069.142-.068.142-.065.143-.064.144-.063.145-.061.146-.059.147-.057.148-.055.148-.054.149-.052.15-.05.151-.048.152-.047.153-.044.153-.043.154-.041.155-.039.155-.037.157-.035.157-.034.158-.031.158-.03.16-.027.16-.026.16-.024.162-.021.162-.02.163-.018.164-.015.164-.014.165-.011.165-.01.167-.007.167-.006.168-.003.168-.001.185v31.984h-10v-32.016l.002-.28.005-.295.01-.295.013-.293.016-.293.021-.292.024-.291.028-.29.031-.289.035-.288.038-.288.042-.286.045-.285.049-.284.053-.282.056-.282.059-.281.063-.279.066-.278.069-.276.073-.276.076-.274.079-.272.083-.271.086-.27.089-.269.092-.266.095-.266.099-.264.101-.262.105-.261.108-.259.111-.257.114-.256.116-.254.12-.252.123-.251.126-.249.128-.247.132-.246.134-.243.137-.242.14-.24.143-.238.145-.236.149-.234.15-.232.154-.231.156-.228.159-.226.162-.225.164-.222.167-.22.169-.218.172-.216.174-.214.177-.212.179-.209.182-.207.184-.205.187-.203.189-.201.191-.198.194-.196.196-.194.198-.191.201-.189.203-.187.205-.184.207-.182.21-.179.211-.177.214-.174.216-.172.218-.169.22-.167.222-.164.225-.162.226-.159.228-.156.23-.153.233-.151.234-.149.236-.145.238-.143.24-.14.242-.137.243-.134.246-.132.247-.128.249-.126.251-.123.252-.12.254-.116.256-.114.257-.111.26-.108.26-.105.262-.101.264-.099.266-.095.266-.092.269-.089.27-.086.271-.083.272-.079.274-.076.276-.073.276-.069.278-.066.279-.063.281-.059.281-.056.283-.053.284-.049.285-.045.286-.042.288-.038.288-.035.289-.031.29-.028.291-.024.292-.021.293-.016.293-.013.295-.01.295-.005.264-.002.064 10z"/><path d="m128.532 12-.201.001-.168.003-.168.006-.167.007-.167.01-.165.011-.165.014-.164.015-.164.018-.163.02-.162.022-.162.023-.16.026-.16.027-.16.03-.158.031-.158.034-.157.035-.157.037-.155.039-.155.041-.154.043-.153.044-.153.047-.152.048-.151.05-.15.052-.149.054-.148.055-.148.057-.147.059-.146.061-.145.063-.144.064-.143.066-.142.067-.142.069-.14.071-.14.073-.138.074-.138.076-.136.077-.136.079-.134.081-.134.082-.132.084-.132.086-.13.087-.13.088-.128.09-.127.092-.126.093-.125.094-.123.096-.123.098-.121.099-.12.1-.119.102-.118.103-.116.104-.115.106-.114.108-.113.108-.111.11-.11.111-.108.113-.108.114-.106.115-.104.116-.103.118-.102.119-.1.12-.099.121-.098.123-.096.123-.094.125-.093.126-.092.127-.09.128-.088.13-.087.13-.086.132-.084.132-.082.134-.081.134-.079.136-.077.136-.076.138-.074.138-.073.14-.071.14-.069.142-.068.142-.065.143-.064.144-.063.145-.061.146-.059.147-.057.148-.055.148-.054.149-.052.15-.05.151-.048.152-.047.153-.044.153-.043.154-.041.155-.039.155-.037.157-.035.157-.034.158-.031.158-.03.16-.027.16-.026.16-.024.162-.021.162-.02.163-.018.164-.015.164-.014.165-.011.165-.01.167-.007.167-.006.168-.003.168-.001.185v31.984h-10v-32.016l.002-.28.005-.295.01-.295.013-.293.016-.293.021-.292.024-.291.028-.29.031-.289.035-.288.038-.288.042-.286.045-.285.049-.284.053-.282.056-.282.059-.281.063-.279.066-.278.069-.276.073-.276.076-.274.079-.272.083-.271.086-.27.089-.269.092-.266.095-.266.099-.264.101-.262.105-.261.108-.259.111-.257.114-.256.116-.254.12-.252.123-.251.126-.249.128-.247.132-.246.134-.243.137-.242.14-.24.143-.238.145-.236.149-.234.15-.232.154-.231.156-.228.159-.226.162-.225.164-.222.167-.22.169-.218.172-.216.174-.214.177-.212.179-.209.182-.207.184-.205.187-.203.189-.201.191-.198.194-.196.196-.194.198-.191.201-.189.203-.187.205-.184.207-.182.21-.179.211-.177.214-.174.216-.172.218-.169.22-.167.222-.164.225-.162.226-.159.228-.156.23-.153.233-.151.234-.149.236-.145.238-.143.24-.14.242-.137.243-.134.246-.132.247-.128.249-.126.251-.123.252-.12.254-.116.256-.114.257-.111.26-.108.26-.105.262-.101.264-.099.266-.095.266-.092.269-.089.27-.086.271-.083.272-.079.274-.076.276-.073.276-.069.278-.066.279-.063.281-.059.281-.056.283-.053.284-.049.285-.045.286-.042.288-.038.288-.035.289-.031.29-.028.291-.024.292-.021.293-.016.293-.013.295-.01.295-.005.264-.002.064 10z"/>
<path d="m106.698 59.735-8.661 5-24.537-42.5-24.537 42.5-8.661-5 33.198-57.5z"/></g><g><g class="arrow" fill="#32dc6e"><path d="m3 22.594h40v10h-40z"/>
<path d="m48.774 27.594-21.444 37.141-8.66-5 18.556-32.141-18.556-32.141 8.66-5z"/></g></g></g></g></svg>
