<?xml version="1.0" encoding="UTF-8" standalone="no"?><!DOCTYPE svg PUBLIC "-//W3C//DTD SVG 1.1//EN" "http://www.w3.org/Graphics/SVG/1.1/DTD/svg11.dtd"><svg width="100%" height="100%" viewBox="0 0 328 54" version="1.1" xmlns="http://www.w3.org/2000/svg" xmlns:xlink="http://www.w3.org/1999/xlink" xml:space="preserve" style="fill-rule:evenodd;clip-rule:evenodd;stroke-linejoin:round;stroke-miterlimit:1.41421;"><rect x="3" y="2.125" width="323" height="50" style="fill:none;"/><clipPath id="_clip1"><rect x="3" y="2.125" width="323" height="50"/></clipPath><g clip-path="url(#_clip1)"><g><path d="M305.27,2.338l0.27,0.005l0.268,0.009l0.268,0.012l0.268,0.015l0.266,0.018l0.266,0.022l0.265,0.026l0.264,0.028l0.263,0.032l0.262,0.035l0.261,0.038l0.261,0.042l0.259,0.044l0.258,0.048l0.257,0.051l0.256,0.054l0.255,0.058l0.254,0.06l0.253,0.063l0.251,0.067l0.25,0.069l0.249,0.073l0.248,0.075l0.246,0.079l0.245,0.081l0.244,0.084l0.242,0.087l0.241,0.09l0.24,0.093l0.238,0.096l0.236,0.098l0.236,0.101l0.233,0.104l0.232,0.107l0.231,0.109l0.229,0.112l0.227,0.115l0.226,0.118l0.224,0.12l0.222,0.122l0.221,0.125l0.219,0.128l0.217,0.131l0.216,0.132l0.214,0.136l0.212,0.138l0.21,0.14l0.208,0.142l0.207,0.146l0.205,0.147l0.203,0.15l0.201,0.152l0.199,0.155l0.197,0.157l0.195,0.159l0.193,0.161l0.192,0.164l0.188,0.166l0.188,0.168l0.185,0.17l0.183,0.173l0.181,0.175l0.179,0.176l0.177,0.179l0.175,0.181l0.172,0.183l0.17,0.186l0.169,0.187l0.166,0.189l0.163,0.191l0.161,0.193l0.16,0.196l0.157,0.197l0.154,0.199l0.153,0.201l0.149,0.203l0.148,0.205l0.145,0.206l0.143,0.208l0.14,0.211l0.138,0.212l0.135,0.214l0.133,0.215l0.13,0.217l0.128,0.22l0.125,0.22l0.123,0.223l0.12,0.224l0.117,0.225l0.115,0.228l0.112,0.229l0.109,0.23l0.107,0.232l0.104,0.234l0.101,0.235l0.099,0.237l0.095,0.237l0.093,0.24l0.09,0.241l0.087,0.243l0.085,0.243l0.081,0.245l0.078,0.246l0.076,0.248l0.072,0.249l0.07,0.25l0.066,0.252l0.063,0.252l0.061,0.254l0.057,0.255l0.054,0.256l0.051,0.257l0.048,0.259l0.045,0.259l0.041,0.26l0.038,0.262l0.035,0.262l0.032,0.263l0.029,0.263l0.025,0.266l0.022,0.265l0.019,0.267l0.015,0.267l0.012,0.268l0.008,0.269l0.005,0.269l0.002,0.254l0,29.826l-10,0l0,-29.794l-0.001,-0.159l-0.003,-0.143l-0.004,-0.142l-0.006,-0.141l-0.009,-0.141l-0.009,-0.14l-0.012,-0.14l-0.013,-0.138l-0.015,-0.139l-0.017,-0.138l-0.018,-0.137l-0.02,-0.137l-0.022,-0.136l-0.023,-0.135l-0.025,-0.135l-0.027,-0.134l-0.028,-0.134l-0.03,-0.132l-0.031,-0.132l-0.033,-0.132l-0.035,-0.131l-0.036,-0.13l-0.038,-0.13l-0.039,-0.129l-0.041,-0.128l-0.042,-0.128l-0.044,-0.127l-0.045,-0.126l-0.047,-0.125l-0.048,-0.125l-0.051,-0.125l-0.051,-0.123l-0.053,-0.123l-0.054,-0.122l-0.056,-0.121l-0.057,-0.12l-0.058,-0.12l-0.06,-0.118l-0.062,-0.118l-0.062,-0.118l-0.065,-0.116l-0.065,-0.116l-0.067,-0.114l-0.068,-0.114l-0.07,-0.114l-0.071,-0.111l-0.072,-0.112l-0.074,-0.11l-0.075,-0.109l-0.076,-0.109l-0.077,-0.107l-0.079,-0.107l-0.08,-0.106l-0.081,-0.104l-0.083,-0.104l-0.084,-0.103l-0.085,-0.101l-0.086,-0.101l-0.087,-0.1l-0.089,-0.098l-0.089,-0.097l-0.091,-0.097l-0.092,-0.095l-0.093,-0.095l-0.094,-0.093l-0.095,-0.091l-0.097,-0.091l-0.097,-0.09l-0.099,-0.088l-0.1,-0.088l-0.1,-0.086l-0.102,-0.085l-0.103,-0.084l-0.103,-0.082l-0.105,-0.081l-0.106,-0.08l-0.106,-0.079l-0.108,-0.078l-0.108,-0.076l-0.11,-0.075l-0.11,-0.073l-0.111,-0.073l-0.112,-0.071l-0.113,-0.069l-0.114,-0.068l-0.115,-0.067l-0.115,-0.066l-0.117,-0.064l-0.117,-0.063l-0.118,-0.061l-0.119,-0.06l-0.12,-0.059l-0.12,-0.057l-0.121,-0.056l-0.122,-0.054l-0.123,-0.053l-0.123,-0.051l-0.124,-0.05l-0.125,-0.048l-0.125,-0.047l-0.127,-0.046l-0.127,-0.043l-0.127,-0.043l-0.129,-0.041l-0.128,-0.039l-0.13,-0.038l-0.13,-0.036l-0.131,-0.034l-0.132,-0.033l-0.132,-0.032l-0.133,-0.03l-0.134,-0.028l-0.134,-0.026l-0.134,-0.025l-0.136,-0.024l-0.136,-0.021l-0.136,-0.02l-0.138,-0.019l-0.137,-0.017l-0.139,-0.014l-0.139,-0.014l-0.14,-0.011l-0.14,-0.01l-0.141,-0.008l-0.141,-0.006l-0.142,-0.005l-0.143,-0.003l-0.143,0l-0.143,0l-0.143,0.003l-0.142,0.005l-0.141,0.006l-0.141,0.008l-0.14,0.01l-0.14,0.011l-0.139,0.014l-0.139,0.015l-0.137,0.016l-0.138,0.018l-0.136,0.021l-0.136,0.021l-0.136,0.024l-0.134,0.025l-0.134,0.026l-0.134,0.028l-0.133,0.03l-0.132,0.032l-0.132,0.033l-0.131,0.034l-0.13,0.036l-0.13,0.038l-0.129,0.039l-0.128,0.041l-0.127,0.043l-0.127,0.043l-0.127,0.046l-0.125,0.047l-0.125,0.048l-0.124,0.05l-0.123,0.051l-0.123,0.053l-0.122,0.054l-0.121,0.056l-0.121,0.057l-0.119,0.059l-0.119,0.06l-0.118,0.061l-0.117,0.063l-0.116,0.064l-0.116,0.066l-0.115,0.067l-0.114,0.068l-0.113,0.069l-0.112,0.071l-0.111,0.073l-0.111,0.073l-0.109,0.075l-0.108,0.076l-0.108,0.078l-0.106,0.079l-0.106,0.08l-0.105,0.081l-0.103,0.082l-0.103,0.084l-0.102,0.085l-0.1,0.086l-0.1,0.087l-0.099,0.089l-0.097,0.09l-0.096,0.09l-0.096,0.092l-0.094,0.094l-0.093,0.094l-0.092,0.095l-0.091,0.096l-0.089,0.098l-0.089,0.099l-0.087,0.099l-0.086,0.101l-0.085,0.101l-0.084,0.103l-0.082,0.103l-0.082,0.105l-0.08,0.106l-0.078,0.106l-0.078,0.108l-0.076,0.109l-0.075,0.109l-0.074,0.11l-0.072,0.111l-0.071,0.113l-0.07,0.113l-0.068,0.114l-0.067,0.114l-0.065,0.116l-0.065,0.116l-0.062,0.117l-0.062,0.119l-0.06,0.118l-0.058,0.12l-0.057,0.12l-0.056,0.121l-0.054,0.122l-0.053,0.123l-0.052,0.123l-0.049,0.124l-0.049,0.125l-0.047,0.126l-0.045,0.126l-0.044,0.127l-0.042,0.127l-0.041,0.129l-0.039,0.129l-0.038,0.129l-0.036,0.131l-0.035,0.131l-0.033,0.131l-0.031,0.133l-0.03,0.133l-0.028,0.133l-0.027,0.134l-0.025,0.135l-0.023,0.135l-0.022,0.136l-0.02,0.137l-0.018,0.137l-0.017,0.138l-0.015,0.138l-0.013,0.139l-0.012,0.14l-0.009,0.14l-0.008,0.141l-0.007,0.142l-0.004,0.141l-0.003,0.143l-0.001,0.159l0,29.794l-10,0l0,-29.826l0.002,-0.254l0.005,-0.269l0.008,-0.269l0.012,-0.268l0.015,-0.267l0.019,-0.267l0.022,-0.265l0.025,-0.265l0.029,-0.264l0.032,-0.263l0.035,-0.263l0.038,-0.261l0.041,-0.26l0.045,-0.26l0.048,-0.258l0.051,-0.257l0.054,-0.256l0.057,-0.255l0.061,-0.253l0.063,-0.253l0.066,-0.252l0.07,-0.25l0.072,-0.249l0.076,-0.248l0.078,-0.246l0.081,-0.245l0.085,-0.244l0.087,-0.242l0.09,-0.241l0.092,-0.239l0.096,-0.238l0.099,-0.237l0.101,-0.235l0.104,-0.234l0.106,-0.232l0.11,-0.23l0.112,-0.229l0.115,-0.228l0.117,-0.225l0.12,-0.224l0.123,-0.223l0.125,-0.22l0.128,-0.22l0.13,-0.217l0.133,-0.215l0.135,-0.214l0.138,-0.212l0.14,-0.211l0.143,-0.208l0.145,-0.206l0.148,-0.205l0.15,-0.203l0.152,-0.201l0.154,-0.199l0.157,-0.197l0.16,-0.196l0.161,-0.193l0.163,-0.191l0.167,-0.189l0.168,-0.187l0.17,-0.186l0.172,-0.183l0.175,-0.181l0.177,-0.179l0.179,-0.176l0.181,-0.175l0.183,-0.173l0.185,-0.17l0.187,-0.168l0.19,-0.166l0.191,-0.164l0.193,-0.161l0.195,-0.159l0.197,-0.157l0.2,-0.155l0.2,-0.152l0.203,-0.15l0.205,-0.147l0.207,-0.146l0.208,-0.142l0.21,-0.14l0.212,-0.138l0.214,-0.136l0.216,-0.133l0.217,-0.13l0.219,-0.128l0.221,-0.125l0.222,-0.122l0.225,-0.121l0.225,-0.117l0.227,-0.115l0.229,-0.112l0.231,-0.109l0.232,-0.107l0.234,-0.104l0.235,-0.101l0.236,-0.098l0.238,-0.096l0.24,-0.093l0.241,-0.09l0.242,-0.087l0.244,-0.084l0.245,-0.081l0.246,-0.079l0.248,-0.075l0.249,-0.073l0.25,-0.069l0.251,-0.067l0.253,-0.063l0.254,-0.06l0.255,-0.058l0.256,-0.054l0.257,-0.051l0.258,-0.048l0.259,-0.044l0.261,-0.042l0.261,-0.038l0.262,-0.035l0.263,-0.032l0.264,-0.028l0.265,-0.026l0.266,-0.022l0.266,-0.018l0.268,-0.015l0.268,-0.012l0.268,-0.009l0.27,-0.005l0.27,-0.002l0.27,0.002Z" style="fill:#aaa;"/><path d="M254.809,2.351l0.158,0.001l0.159,0.003l0.158,0.003l0.158,0.005l0.157,0.005l0.158,0.007l0.157,0.007l0.157,0.009l0.157,0.009l0.156,0.01l0.157,0.012l0.156,0.012l0.156,0.014l0.155,0.014l0.156,0.015l0.155,0.016l0.155,0.018l0.154,0.018l0.154,0.019l0.155,0.02l0.153,0.021l0.154,0.022l0.153,0.023l0.153,0.024l0.152,0.025l0.153,0.026l0.152,0.026l0.151,0.028l0.152,0.028l0.151,0.03l0.15,0.03l0.151,0.032l0.15,0.032l0.15,0.033l0.149,0.034l0.149,0.035l0.149,0.036l0.148,0.036l0.148,0.038l0.148,0.039l0.148,0.039l0.147,0.04l0.146,0.042l0.146,0.042l0.146,0.043l0.146,0.043l0.152,0.047l0.282,0.09l0.287,0.095l0.286,0.099l0.285,0.102l0.283,0.106l0.28,0.109l0.28,0.112l0.277,0.116l0.276,0.118l0.274,0.122l0.273,0.126l0.27,0.128l0.269,0.132l0.267,0.134l0.265,0.138l0.263,0.141l0.261,0.144l0.259,0.147l0.257,0.15l0.255,0.153l0.253,0.156l0.251,0.159l0.249,0.161l0.247,0.165l0.245,0.168l0.242,0.17l0.24,0.173l0.239,0.176l0.236,0.179l0.234,0.181l0.231,0.185l0.229,0.186l0.227,0.19l0.224,0.192l0.223,0.195l0.219,0.197l0.218,0.2l0.215,0.203l0.212,0.205l0.21,0.208l0.208,0.21l0.205,0.212l0.203,0.215l0.2,0.218l0.197,0.219l0.195,0.222l0.192,0.225l0.19,0.227l0.187,0.229l0.184,0.231l0.181,0.234l0.179,0.236l0.176,0.238l0.173,0.241l0.17,0.242l0.168,0.245l0.164,0.247l0.162,0.249l0.159,0.251l0.156,0.253l0.153,0.255l0.15,0.257l0.147,0.259l0.144,0.261l0.141,0.263l0.138,0.265l0.134,0.267l0.132,0.269l0.128,0.27l0.126,0.272l0.122,0.275l0.118,0.275l0.116,0.278l0.112,0.279l0.109,0.282l0.106,0.282l0.102,0.285l0.099,0.286l0.095,0.287l0.09,0.282l0.047,0.152l0.043,0.146l0.043,0.146l0.042,0.146l0.042,0.146l0.04,0.148l0.039,0.147l0.039,0.148l0.037,0.148l0.037,0.148l0.036,0.149l0.035,0.148l0.034,0.15l0.033,0.15l0.032,0.15l0.032,0.15l0.03,0.151l0.03,0.151l0.028,0.151l0.028,0.153l0.026,0.152l0.026,0.151l0.025,0.153l0.024,0.153l0.023,0.154l0.022,0.153l0.021,0.153l0.02,0.154l0.019,0.155l0.018,0.154l0.017,0.155l0.017,0.155l0.015,0.156l0.014,0.155l0.014,0.156l0.012,0.156l0.012,0.156l0.01,0.157l0.009,0.157l0.009,0.157l0.007,0.157l0.007,0.158l0.005,0.157l0.005,0.158l0.003,0.158l0.003,0.159l0.001,0.158l0.017,5.159l-38.404,0l0.026,0.066l0.063,0.159l0.065,0.158l0.068,0.157l0.069,0.157l0.071,0.155l0.073,0.154l0.075,0.153l0.076,0.152l0.079,0.151l0.081,0.15l0.082,0.149l0.084,0.148l0.086,0.147l0.088,0.146l0.09,0.145l0.091,0.144l0.094,0.143l0.095,0.142l0.097,0.14l0.099,0.14l0.1,0.139l0.103,0.137l0.104,0.136l0.105,0.135l0.108,0.135l0.109,0.133l0.111,0.131l0.113,0.131l0.114,0.13l0.116,0.128l0.118,0.127l0.12,0.126l0.121,0.125l0.123,0.124l0.124,0.122l0.126,0.121l0.128,0.12l0.129,0.118l0.131,0.118l0.133,0.116l0.134,0.114l0.135,0.114l0.137,0.112l0.139,0.11l0.14,0.11l0.142,0.108l0.143,0.106l0.145,0.105l0.146,0.104l0.147,0.102l0.149,0.101l0.151,0.099l0.152,0.098l0.153,0.097l0.155,0.095l0.156,0.093l0.157,0.092l0.159,0.09l0.16,0.089l0.161,0.087l0.163,0.086l0.164,0.084l0.165,0.082l0.166,0.081l0.168,0.079l0.169,0.077l0.17,0.076l0.171,0.074l0.173,0.072l0.173,0.071l0.175,0.069l0.176,0.067l0.177,0.066l0.178,0.063l0.179,0.062l0.18,0.06l0.181,0.059l0.183,0.056l0.183,0.055l0.184,0.053l0.185,0.051l0.186,0.049l0.188,0.047l0.188,0.045l0.189,0.044l0.189,0.041l0.191,0.04l0.192,0.038l0.192,0.035l0.194,0.034l0.194,0.032l0.195,0.029l0.195,0.028l0.197,0.026l0.197,0.024l0.198,0.021l0.199,0.02l0.2,0.017l0.202,0.016l0.27,0.018l0.275,0.016l0.126,0.006l0.132,0.006l0.131,0.006l0.129,0.004l0.129,0.004l0.128,0.004l0.127,0.002l0.126,0.002l0.125,0.002l0.124,0l0.123,0l0.122,0l0.122,-0.001l0.12,-0.002l0.12,-0.003l0.119,-0.003l0.118,-0.003l0.118,-0.005l0.116,-0.005l0.116,-0.005l0.115,-0.006l0.114,-0.007l0.114,-0.007l0.113,-0.008l0.112,-0.008l0.111,-0.009l0.111,-0.01l0.11,-0.01l0.11,-0.011l0.109,-0.011l0.108,-0.012l0.108,-0.012l0.107,-0.013l0.106,-0.014l0.106,-0.014l0.106,-0.014l0.105,-0.015l0.104,-0.016l0.104,-0.016l0.104,-0.017l0.103,-0.017l0.103,-0.018l0.102,-0.018l0.102,-0.019l0.102,-0.02l0.101,-0.02l0.101,-0.02l0.1,-0.021l0.1,-0.022l0.093,-0.021l0.207,-0.047l0.197,-0.048l0.198,-0.05l0.196,-0.053l0.196,-0.054l0.196,-0.057l0.195,-0.059l0.195,-0.061l0.195,-0.064l0.195,-0.066l0.195,-0.068l0.196,-0.07l0.195,-0.073l0.197,-0.075l0.197,-0.078l0.197,-0.08l0.198,-0.082l0.199,-0.085l0.2,-0.088l0.201,-0.09l0.202,-0.092l0.203,-0.095l0.204,-0.098l0.206,-0.1l0.207,-0.103l0.209,-0.105l0.21,-0.108l0.212,-0.111l0.213,-0.113l0.215,-0.116l0.217,-0.118l0.218,-0.122l0.221,-0.123l0.222,-0.127l0.224,-0.129l0.227,-0.131l0.238,-0.14l5.065,8.622l-0.257,0.151l-0.267,0.155l-0.267,0.154l-0.267,0.152l-0.268,0.15l-0.267,0.148l-0.269,0.147l-0.269,0.145l-0.269,0.143l-0.27,0.141l-0.271,0.139l-0.272,0.138l-0.273,0.135l-0.274,0.134l-0.275,0.131l-0.276,0.129l-0.278,0.127l-0.278,0.125l-0.28,0.122l-0.281,0.12l-0.283,0.118l-0.284,0.115l-0.286,0.113l-0.287,0.11l-0.289,0.108l-0.291,0.104l-0.292,0.102l-0.294,0.1l-0.296,0.096l-0.297,0.094l-0.3,0.09l-0.301,0.087l-0.303,0.085l-0.304,0.081l-0.307,0.078l-0.308,0.075l-0.304,0.07l-0.162,0.036l-0.157,0.033l-0.156,0.033l-0.158,0.032l-0.157,0.031l-0.159,0.031l-0.158,0.029l-0.159,0.029l-0.16,0.027l-0.16,0.027l-0.161,0.026l-0.161,0.025l-0.161,0.024l-0.162,0.024l-0.162,0.022l-0.163,0.022l-0.164,0.02l-0.164,0.02l-0.164,0.019l-0.165,0.018l-0.165,0.017l-0.166,0.016l-0.166,0.016l-0.167,0.014l-0.167,0.014l-0.168,0.012l-0.168,0.012l-0.169,0.011l-0.169,0.01l-0.17,0.008l-0.17,0.009l-0.171,0.007l-0.171,0.006l-0.172,0.005l-0.172,0.005l-0.173,0.003l-0.174,0.003l-0.173,0.002l-0.175,0l-0.175,0l-0.175,-0.001l-0.176,-0.002l-0.177,-0.002l-0.177,-0.004l-0.178,-0.005l-0.178,-0.005l-0.179,-0.007l-0.179,-0.007l-0.18,-0.008l-0.187,-0.01l-0.356,-0.02l-0.368,-0.025l-0.304,-0.023l-0.305,-0.027l-0.305,-0.03l-0.304,-0.033l-0.302,-0.037l-0.302,-0.039l-0.301,-0.043l-0.301,-0.046l-0.299,-0.049l-0.298,-0.052l-0.297,-0.055l-0.296,-0.058l-0.295,-0.061l-0.294,-0.064l-0.293,-0.068l-0.292,-0.07l-0.29,-0.073l-0.29,-0.077l-0.288,-0.079l-0.287,-0.082l-0.286,-0.086l-0.284,-0.088l-0.284,-0.091l-0.282,-0.094l-0.28,-0.097l-0.279,-0.1l-0.278,-0.103l-0.277,-0.105l-0.275,-0.109l-0.273,-0.111l-0.272,-0.114l-0.271,-0.117l-0.269,-0.12l-0.267,-0.123l-0.266,-0.125l-0.265,-0.129l-0.262,-0.131l-0.261,-0.133l-0.26,-0.137l-0.257,-0.139l-0.256,-0.142l-0.255,-0.145l-0.252,-0.147l-0.251,-0.15l-0.249,-0.153l-0.247,-0.155l-0.245,-0.158l-0.244,-0.161l-0.241,-0.163l-0.24,-0.166l-0.237,-0.169l-0.236,-0.171l-0.233,-0.174l-0.232,-0.176l-0.229,-0.179l-0.228,-0.181l-0.225,-0.184l-0.223,-0.187l-0.221,-0.189l-0.219,-0.191l-0.216,-0.194l-0.214,-0.197l-0.212,-0.199l-0.21,-0.201l-0.208,-0.204l-0.205,-0.207l-0.202,-0.208l-0.2,-0.211l-0.198,-0.214l-0.195,-0.216l-0.193,-0.218l-0.19,-0.221l-0.188,-0.223l-0.185,-0.225l-0.183,-0.227l-0.179,-0.23l-0.178,-0.232l-0.174,-0.235l-0.172,-0.236l-0.169,-0.239l-0.166,-0.241l-0.163,-0.243l-0.16,-0.246l-0.158,-0.247l-0.155,-0.25l-0.151,-0.252l-0.149,-0.254l-0.146,-0.256l-0.142,-0.258l-0.14,-0.26l-0.136,-0.262l-0.133,-0.264l-0.13,-0.266l-0.127,-0.268l-0.124,-0.27l-0.12,-0.271l-0.117,-0.274l-0.114,-0.276l-0.111,-0.277l-0.104,-0.271l-0.055,-0.148l-0.051,-0.141l-0.051,-0.141l-0.049,-0.141l-0.049,-0.143l-0.048,-0.142l-0.047,-0.143l-0.046,-0.143l-0.046,-0.144l-0.044,-0.144l-0.043,-0.144l-0.043,-0.145l-0.042,-0.145l-0.041,-0.146l-0.04,-0.146l-0.039,-0.146l-0.038,-0.147l-0.037,-0.148l-0.036,-0.147l-0.036,-0.148l-0.034,-0.149l-0.034,-0.148l-0.032,-0.149l-0.032,-0.15l-0.031,-0.149l-0.03,-0.15l-0.028,-0.151l-0.028,-0.151l-0.027,-0.151l-0.026,-0.151l-0.025,-0.152l-0.025,-0.153l-0.023,-0.152l-0.022,-0.153l-0.021,-0.153l-0.02,-0.153l-0.02,-0.154l-0.018,-0.154l-0.018,-0.155l-0.016,-0.154l-0.015,-0.155l-0.015,-0.155l-0.013,-0.156l-0.013,-0.155l-0.011,-0.157l-0.011,-0.156l-0.009,-0.157l-0.009,-0.156l-0.007,-0.157l-0.007,-0.158l-0.005,-0.157l-0.005,-0.158l-0.003,-0.158l-0.003,-0.159l-0.002,-0.158l0,-0.159l0,-0.159l0.002,-0.158l0.002,-0.159l0.004,-0.158l0.005,-0.158l0.005,-0.157l0.007,-0.158l0.007,-0.157l0.008,-0.157l0.01,-0.157l0.01,-0.157l0.012,-0.156l0.012,-0.156l0.014,-0.156l0.014,-0.156l0.015,-0.155l0.016,-0.155l0.018,-0.155l0.018,-0.154l0.019,-0.155l0.02,-0.154l0.021,-0.153l0.022,-0.154l0.023,-0.153l0.024,-0.153l0.025,-0.153l0.026,-0.152l0.026,-0.152l0.028,-0.151l0.028,-0.152l0.03,-0.151l0.03,-0.15l0.032,-0.151l0.032,-0.15l0.033,-0.15l0.034,-0.149l0.035,-0.149l0.036,-0.149l0.036,-0.148l0.038,-0.148l0.039,-0.148l0.039,-0.147l0.04,-0.148l0.042,-0.146l0.042,-0.146l0.043,-0.146l0.043,-0.146l0.047,-0.152l0.09,-0.282l0.095,-0.287l0.099,-0.286l0.102,-0.285l0.106,-0.282l0.109,-0.282l0.112,-0.279l0.116,-0.278l0.118,-0.275l0.122,-0.274l0.126,-0.273l0.128,-0.27l0.132,-0.269l0.134,-0.267l0.138,-0.265l0.141,-0.263l0.144,-0.261l0.147,-0.259l0.15,-0.257l0.153,-0.255l0.156,-0.253l0.159,-0.251l0.161,-0.249l0.165,-0.247l0.168,-0.245l0.17,-0.242l0.173,-0.241l0.176,-0.238l0.179,-0.236l0.181,-0.233l0.184,-0.232l0.187,-0.229l0.19,-0.227l0.192,-0.225l0.195,-0.222l0.197,-0.219l0.2,-0.218l0.203,-0.215l0.205,-0.212l0.207,-0.211l0.211,-0.207l0.212,-0.205l0.215,-0.203l0.218,-0.2l0.219,-0.197l0.222,-0.195l0.225,-0.192l0.227,-0.19l0.229,-0.186l0.231,-0.185l0.234,-0.181l0.236,-0.179l0.238,-0.176l0.241,-0.173l0.242,-0.17l0.245,-0.168l0.247,-0.165l0.249,-0.161l0.251,-0.159l0.253,-0.156l0.255,-0.153l0.257,-0.15l0.259,-0.147l0.261,-0.144l0.263,-0.141l0.265,-0.138l0.267,-0.134l0.268,-0.132l0.271,-0.128l0.272,-0.126l0.275,-0.122l0.275,-0.118l0.278,-0.116l0.279,-0.112l0.281,-0.109l0.283,-0.106l0.285,-0.102l0.285,-0.099l0.288,-0.095l0.282,-0.09l0.152,-0.047l0.146,-0.043l0.146,-0.043l0.146,-0.042l0.147,-0.042l0.147,-0.04l0.147,-0.039l0.147,-0.039l0.149,-0.038l0.148,-0.036l0.149,-0.036l0.149,-0.035l0.149,-0.034l0.15,-0.033l0.15,-0.032l0.15,-0.032l0.151,-0.03l0.151,-0.03l0.152,-0.028l0.151,-0.028l0.152,-0.026l0.153,-0.026l0.152,-0.025l0.153,-0.024l0.153,-0.023l0.154,-0.022l0.153,-0.021l0.154,-0.02l0.155,-0.019l0.154,-0.018l0.155,-0.018l0.155,-0.016l0.156,-0.015l0.155,-0.014l0.156,-0.014l0.156,-0.012l0.157,-0.012l0.156,-0.01l0.157,-0.009l0.157,-0.009l0.157,-0.007l0.158,-0.007l0.157,-0.005l0.158,-0.005l0.158,-0.003l0.159,-0.003l0.158,-0.001l0.159,-0.001l0.159,0.001Zm-0.254,9.999l-0.095,0.001l-0.095,0.002l-0.095,0.002l-0.095,0.003l-0.094,0.003l-0.094,0.004l-0.094,0.004l-0.094,0.005l-0.093,0.006l-0.094,0.006l-0.093,0.007l-0.093,0.007l-0.093,0.008l-0.093,0.009l-0.092,0.009l-0.092,0.01l-0.092,0.01l-0.092,0.011l-0.092,0.011l-0.091,0.012l-0.092,0.012l-0.091,0.014l-0.091,0.013l-0.09,0.014l-0.091,0.015l-0.09,0.015l-0.09,0.016l-0.09,0.017l-0.09,0.016l-0.089,0.018l-0.09,0.018l-0.089,0.018l-0.089,0.019l-0.088,0.02l-0.089,0.02l-0.088,0.021l-0.088,0.021l-0.088,0.022l-0.087,0.022l-0.088,0.023l-0.087,0.023l-0.087,0.024l-0.087,0.024l-0.086,0.025l-0.086,0.026l-0.086,0.026l-0.079,0.024l-0.178,0.057l-0.171,0.056l-0.169,0.059l-0.168,0.06l-0.167,0.062l-0.167,0.065l-0.165,0.066l-0.165,0.069l-0.163,0.07l-0.163,0.073l-0.161,0.074l-0.16,0.076l-0.16,0.078l-0.158,0.08l-0.157,0.082l-0.156,0.083l-0.155,0.086l-0.154,0.087l-0.153,0.089l-0.152,0.091l-0.15,0.093l-0.15,0.094l-0.148,0.097l-0.147,0.098l-0.145,0.099l-0.145,0.102l-0.143,0.103l-0.142,0.105l-0.14,0.106l-0.14,0.108l-0.138,0.11l-0.136,0.112l-0.136,0.113l-0.133,0.114l-0.133,0.117l-0.131,0.117l-0.13,0.12l-0.128,0.12l-0.127,0.123l-0.125,0.124l-0.124,0.125l-0.123,0.127l-0.12,0.128l-0.12,0.13l-0.118,0.131l-0.116,0.133l-0.114,0.133l-0.113,0.136l-0.112,0.136l-0.11,0.138l-0.108,0.14l-0.106,0.14l-0.105,0.142l-0.103,0.143l-0.102,0.145l-0.099,0.145l-0.098,0.147l-0.097,0.148l-0.094,0.15l-0.093,0.15l-0.091,0.152l-0.089,0.153l-0.087,0.154l-0.086,0.155l-0.083,0.156l-0.082,0.157l-0.08,0.158l-0.078,0.16l-0.076,0.16l-0.074,0.161l-0.073,0.163l-0.07,0.163l-0.069,0.165l-0.066,0.165l-0.065,0.167l-0.062,0.167l-0.012,0.033l27.548,0l-0.012,-0.033l-0.063,-0.167l-0.064,-0.167l-0.066,-0.165l-0.069,-0.165l-0.07,-0.163l-0.073,-0.162l-0.074,-0.162l-0.076,-0.16l-0.078,-0.16l-0.08,-0.158l-0.082,-0.157l-0.083,-0.156l-0.086,-0.155l-0.087,-0.154l-0.089,-0.153l-0.091,-0.152l-0.093,-0.15l-0.094,-0.15l-0.097,-0.147l-0.098,-0.148l-0.099,-0.145l-0.102,-0.145l-0.103,-0.143l-0.105,-0.142l-0.106,-0.14l-0.108,-0.14l-0.11,-0.138l-0.112,-0.136l-0.113,-0.136l-0.114,-0.133l-0.116,-0.133l-0.118,-0.131l-0.12,-0.13l-0.12,-0.128l-0.123,-0.127l-0.124,-0.125l-0.125,-0.124l-0.127,-0.123l-0.128,-0.12l-0.13,-0.12l-0.131,-0.117l-0.133,-0.117l-0.134,-0.114l-0.135,-0.113l-0.136,-0.112l-0.138,-0.11l-0.14,-0.108l-0.14,-0.106l-0.142,-0.105l-0.143,-0.103l-0.145,-0.102l-0.145,-0.099l-0.147,-0.098l-0.149,-0.097l-0.149,-0.094l-0.15,-0.093l-0.152,-0.091l-0.153,-0.089l-0.154,-0.087l-0.155,-0.086l-0.156,-0.083l-0.157,-0.082l-0.158,-0.08l-0.16,-0.078l-0.16,-0.076l-0.161,-0.074l-0.163,-0.073l-0.163,-0.07l-0.165,-0.068l-0.165,-0.067l-0.167,-0.065l-0.167,-0.062l-0.168,-0.06l-0.17,-0.059l-0.17,-0.056l-0.178,-0.057l-0.078,-0.024l-0.087,-0.026l-0.086,-0.026l-0.086,-0.025l-0.087,-0.024l-0.087,-0.024l-0.087,-0.023l-0.088,-0.023l-0.087,-0.022l-0.088,-0.022l-0.088,-0.021l-0.088,-0.021l-0.089,-0.02l-0.088,-0.02l-0.089,-0.019l-0.089,-0.018l-0.09,-0.018l-0.089,-0.018l-0.09,-0.016l-0.09,-0.017l-0.09,-0.016l-0.09,-0.015l-0.091,-0.015l-0.09,-0.014l-0.091,-0.013l-0.091,-0.014l-0.092,-0.012l-0.091,-0.012l-0.092,-0.011l-0.092,-0.011l-0.092,-0.01l-0.092,-0.01l-0.092,-0.009l-0.093,-0.009l-0.093,-0.008l-0.093,-0.007l-0.093,-0.007l-0.094,-0.006l-0.093,-0.006l-0.094,-0.005l-0.094,-0.004l-0.094,-0.004l-0.094,-0.003l-0.095,-0.003l-0.095,-0.002l-0.095,-0.002l-0.095,-0.001l-0.095,0l-0.095,0Z" style="fill:#aaa;"/><path d="M237.565,-4.5l-33.197,57.5l0,0l-33.198,-57.5l8.66,-5l24.538,42.5l24.537,-42.5l8.66,5Z" style="fill:#aaa;"/><rect x="161" y="2" width="10" height="50" style="fill:#aaa;"/><path d="M156.032,12l-0.201,0.001l-0.168,0.003l-0.168,0.006l-0.167,0.007l-0.167,0.01l-0.165,0.011l-0.165,0.014l-0.164,0.015l-0.164,0.018l-0.163,0.02l-0.162,0.022l-0.162,0.023l-0.16,0.026l-0.16,0.027l-0.16,0.03l-0.158,0.031l-0.158,0.034l-0.157,0.035l-0.157,0.037l-0.155,0.039l-0.155,0.041l-0.154,0.043l-0.153,0.044l-0.153,0.047l-0.152,0.048l-0.151,0.05l-0.15,0.052l-0.149,0.054l-0.148,0.055l-0.148,0.057l-0.147,0.059l-0.146,0.061l-0.145,0.063l-0.144,0.064l-0.143,0.066l-0.142,0.067l-0.142,0.069l-0.14,0.071l-0.14,0.073l-0.138,0.074l-0.138,0.076l-0.136,0.077l-0.136,0.079l-0.134,0.081l-0.134,0.082l-0.132,0.084l-0.132,0.086l-0.13,0.087l-0.13,0.088l-0.128,0.09l-0.127,0.092l-0.126,0.093l-0.125,0.094l-0.123,0.096l-0.123,0.098l-0.121,0.099l-0.12,0.1l-0.119,0.102l-0.118,0.103l-0.116,0.104l-0.115,0.106l-0.114,0.108l-0.113,0.108l-0.111,0.11l-0.11,0.111l-0.108,0.113l-0.108,0.114l-0.106,0.115l-0.104,0.116l-0.103,0.118l-0.102,0.119l-0.1,0.12l-0.099,0.121l-0.098,0.123l-0.096,0.123l-0.094,0.125l-0.093,0.126l-0.092,0.127l-0.09,0.128l-0.088,0.13l-0.087,0.13l-0.086,0.132l-0.084,0.132l-0.082,0.134l-0.081,0.134l-0.079,0.136l-0.077,0.136l-0.076,0.138l-0.074,0.138l-0.073,0.14l-0.071,0.14l-0.069,0.142l-0.068,0.142l-0.065,0.143l-0.064,0.144l-0.063,0.145l-0.061,0.146l-0.059,0.147l-0.057,0.148l-0.055,0.148l-0.054,0.149l-0.052,0.15l-0.05,0.151l-0.048,0.152l-0.047,0.153l-0.044,0.153l-0.043,0.154l-0.041,0.155l-0.039,0.155l-0.037,0.157l-0.035,0.157l-0.034,0.158l-0.031,0.158l-0.03,0.16l-0.027,0.16l-0.026,0.16l-0.024,0.162l-0.021,0.162l-0.02,0.163l-0.018,0.164l-0.015,0.164l-0.014,0.165l-0.011,0.165l-0.01,0.167l-0.007,0.167l-0.006,0.168l-0.003,0.168l-0.001,0.185l0,31.984l-10,0l0,-32.016l0.002,-0.28l0.005,-0.295l0.01,-0.295l0.013,-0.293l0.016,-0.293l0.021,-0.292l0.024,-0.291l0.028,-0.29l0.031,-0.289l0.035,-0.288l0.038,-0.288l0.042,-0.286l0.045,-0.285l0.049,-0.284l0.053,-0.282l0.056,-0.282l0.059,-0.281l0.063,-0.279l0.066,-0.278l0.069,-0.276l0.073,-0.276l0.076,-0.274l0.079,-0.272l0.083,-0.271l0.086,-0.27l0.089,-0.269l0.092,-0.266l0.095,-0.266l0.099,-0.264l0.101,-0.262l0.105,-0.261l0.108,-0.259l0.111,-0.257l0.114,-0.256l0.116,-0.254l0.12,-0.252l0.123,-0.251l0.126,-0.249l0.128,-0.247l0.132,-0.246l0.134,-0.243l0.137,-0.242l0.14,-0.24l0.143,-0.238l0.145,-0.236l0.149,-0.234l0.15,-0.232l0.154,-0.231l0.156,-0.228l0.159,-0.226l0.162,-0.225l0.164,-0.222l0.167,-0.22l0.169,-0.218l0.172,-0.216l0.174,-0.214l0.177,-0.212l0.179,-0.209l0.182,-0.207l0.184,-0.205l0.187,-0.203l0.189,-0.201l0.191,-0.198l0.194,-0.196l0.196,-0.194l0.198,-0.191l0.201,-0.189l0.203,-0.187l0.205,-0.184l0.207,-0.182l0.21,-0.179l0.211,-0.177l0.214,-0.174l0.216,-0.172l0.218,-0.169l0.22,-0.167l0.222,-0.164l0.225,-0.162l0.226,-0.159l0.228,-0.156l0.23,-0.153l0.233,-0.151l0.234,-0.149l0.236,-0.145l0.238,-0.143l0.24,-0.14l0.242,-0.137l0.243,-0.134l0.246,-0.132l0.247,-0.128l0.249,-0.126l0.251,-0.123l0.252,-0.12l0.254,-0.116l0.256,-0.114l0.257,-0.111l0.26,-0.108l0.26,-0.105l0.262,-0.101l0.264,-0.099l0.266,-0.095l0.266,-0.092l0.269,-0.089l0.27,-0.086l0.271,-0.083l0.272,-0.079l0.274,-0.076l0.276,-0.073l0.276,-0.069l0.278,-0.066l0.279,-0.063l0.281,-0.059l0.281,-0.056l0.283,-0.053l0.284,-0.049l0.285,-0.045l0.286,-0.042l0.288,-0.038l0.288,-0.035l0.289,-0.031l0.29,-0.028l0.291,-0.024l0.292,-0.021l0.293,-0.016l0.293,-0.013l0.295,-0.01l0.295,-0.005l0.264,-0.002l0.064,10Z" style="fill:#aaa;"/><path d="M128.532,12l-0.201,0.001l-0.168,0.003l-0.168,0.006l-0.167,0.007l-0.167,0.01l-0.165,0.011l-0.165,0.014l-0.164,0.015l-0.164,0.018l-0.163,0.02l-0.162,0.022l-0.162,0.023l-0.16,0.026l-0.16,0.027l-0.16,0.03l-0.158,0.031l-0.158,0.034l-0.157,0.035l-0.157,0.037l-0.155,0.039l-0.155,0.041l-0.154,0.043l-0.153,0.044l-0.153,0.047l-0.152,0.048l-0.151,0.05l-0.15,0.052l-0.149,0.054l-0.148,0.055l-0.148,0.057l-0.147,0.059l-0.146,0.061l-0.145,0.063l-0.144,0.064l-0.143,0.066l-0.142,0.067l-0.142,0.069l-0.14,0.071l-0.14,0.073l-0.138,0.074l-0.138,0.076l-0.136,0.077l-0.136,0.079l-0.134,0.081l-0.134,0.082l-0.132,0.084l-0.132,0.086l-0.13,0.087l-0.13,0.088l-0.128,0.09l-0.127,0.092l-0.126,0.093l-0.125,0.094l-0.123,0.096l-0.123,0.098l-0.121,0.099l-0.12,0.1l-0.119,0.102l-0.118,0.103l-0.116,0.104l-0.115,0.106l-0.114,0.108l-0.113,0.108l-0.111,0.11l-0.11,0.111l-0.108,0.113l-0.108,0.114l-0.106,0.115l-0.104,0.116l-0.103,0.118l-0.102,0.119l-0.1,0.12l-0.099,0.121l-0.098,0.123l-0.096,0.123l-0.094,0.125l-0.093,0.126l-0.092,0.127l-0.09,0.128l-0.088,0.13l-0.087,0.13l-0.086,0.132l-0.084,0.132l-0.082,0.134l-0.081,0.134l-0.079,0.136l-0.077,0.136l-0.076,0.138l-0.074,0.138l-0.073,0.14l-0.071,0.14l-0.069,0.142l-0.068,0.142l-0.065,0.143l-0.064,0.144l-0.063,0.145l-0.061,0.146l-0.059,0.147l-0.057,0.148l-0.055,0.148l-0.054,0.149l-0.052,0.15l-0.05,0.151l-0.048,0.152l-0.047,0.153l-0.044,0.153l-0.043,0.154l-0.041,0.155l-0.039,0.155l-0.037,0.157l-0.035,0.157l-0.034,0.158l-0.031,0.158l-0.03,0.16l-0.027,0.16l-0.026,0.16l-0.024,0.162l-0.021,0.162l-0.02,0.163l-0.018,0.164l-0.015,0.164l-0.014,0.165l-0.011,0.165l-0.01,0.167l-0.007,0.167l-0.006,0.168l-0.003,0.168l-0.001,0.185l0,31.984l-10,0l0,-32.016l0.002,-0.28l0.005,-0.295l0.01,-0.295l0.013,-0.293l0.016,-0.293l0.021,-0.292l0.024,-0.291l0.028,-0.29l0.031,-0.289l0.035,-0.288l0.038,-0.288l0.042,-0.286l0.045,-0.285l0.049,-0.284l0.053,-0.282l0.056,-0.282l0.059,-0.281l0.063,-0.279l0.066,-0.278l0.069,-0.276l0.073,-0.276l0.076,-0.274l0.079,-0.272l0.083,-0.271l0.086,-0.27l0.089,-0.269l0.092,-0.266l0.095,-0.266l0.099,-0.264l0.101,-0.262l0.105,-0.261l0.108,-0.259l0.111,-0.257l0.114,-0.256l0.116,-0.254l0.12,-0.252l0.123,-0.251l0.126,-0.249l0.128,-0.247l0.132,-0.246l0.134,-0.243l0.137,-0.242l0.14,-0.24l0.143,-0.238l0.145,-0.236l0.149,-0.234l0.15,-0.232l0.154,-0.231l0.156,-0.228l0.159,-0.226l0.162,-0.225l0.164,-0.222l0.167,-0.22l0.169,-0.218l0.172,-0.216l0.174,-0.214l0.177,-0.212l0.179,-0.209l0.182,-0.207l0.184,-0.205l0.187,-0.203l0.189,-0.201l0.191,-0.198l0.194,-0.196l0.196,-0.194l0.198,-0.191l0.201,-0.189l0.203,-0.187l0.205,-0.184l0.207,-0.182l0.21,-0.179l0.211,-0.177l0.214,-0.174l0.216,-0.172l0.218,-0.169l0.22,-0.167l0.222,-0.164l0.225,-0.162l0.226,-0.159l0.228,-0.156l0.23,-0.153l0.233,-0.151l0.234,-0.149l0.236,-0.145l0.238,-0.143l0.24,-0.14l0.242,-0.137l0.243,-0.134l0.246,-0.132l0.247,-0.128l0.249,-0.126l0.251,-0.123l0.252,-0.12l0.254,-0.116l0.256,-0.114l0.257,-0.111l0.26,-0.108l0.26,-0.105l0.262,-0.101l0.264,-0.099l0.266,-0.095l0.266,-0.092l0.269,-0.089l0.27,-0.086l0.271,-0.083l0.272,-0.079l0.274,-0.076l0.276,-0.073l0.276,-0.069l0.278,-0.066l0.279,-0.063l0.281,-0.059l0.281,-0.056l0.283,-0.053l0.284,-0.049l0.285,-0.045l0.286,-0.042l0.288,-0.038l0.288,-0.035l0.289,-0.031l0.29,-0.028l0.291,-0.024l0.292,-0.021l0.293,-0.016l0.293,-0.013l0.295,-0.01l0.295,-0.005l0.264,-0.002l0.064,10Z" style="fill:#aaa;"/><path d="M106.698,59.735l-8.661,5l-24.537,-42.5l-24.537,42.5l-8.661,-5l33.198,-57.5l33.198,57.5Z" style="fill:#aaa;"/><g><rect x="3" y="22.594" width="40" height="10" style="fill:#32dc6e;"/><path d="M48.774,27.594l-21.444,37.141l-8.66,-5l18.556,-32.141l-18.556,-32.141l8.66,-5l21.444,37.141Z" style="fill:#32dc6e;"/></g></g></g></svg>